<mxfile host="65bd71144e">
    <diagram name="Page-1" id="tyPmelYILmHCZgquHCRe">
        <mxGraphModel dx="3008" dy="1088" grid="1" gridSize="10" guides="1" tooltips="1" connect="1" arrows="1" fold="1" page="1" pageScale="1" pageWidth="1654" pageHeight="1169" math="0" shadow="0">
            <root>
                <mxCell id="0"/>
                <mxCell id="1" parent="0"/>
                <mxCell id="qKAgkgesWeWLvzqZyhlg-28" value="" style="edgeStyle=orthogonalEdgeStyle;rounded=0;orthogonalLoop=1;jettySize=auto;html=1;fontSize=16;" parent="1" source="qKAgkgesWeWLvzqZyhlg-4" target="qKAgkgesWeWLvzqZyhlg-23" edge="1">
                    <mxGeometry relative="1" as="geometry"/>
                </mxCell>
                <mxCell id="qKAgkgesWeWLvzqZyhlg-29" value="Yes" style="edgeLabel;html=1;align=center;verticalAlign=middle;resizable=0;points=[];fontSize=16;rounded=0;" parent="qKAgkgesWeWLvzqZyhlg-28" vertex="1" connectable="0">
                    <mxGeometry x="-0.08" y="3" relative="1" as="geometry">
                        <mxPoint y="-4" as="offset"/>
                    </mxGeometry>
                </mxCell>
                <mxCell id="qKAgkgesWeWLvzqZyhlg-117" value="" style="edgeStyle=orthogonalEdgeStyle;orthogonalLoop=1;jettySize=auto;html=1;fontSize=16;" parent="1" source="qKAgkgesWeWLvzqZyhlg-4" target="qKAgkgesWeWLvzqZyhlg-115" edge="1">
                    <mxGeometry relative="1" as="geometry"/>
                </mxCell>
                <mxCell id="qKAgkgesWeWLvzqZyhlg-118" value="No" style="edgeLabel;html=1;align=center;verticalAlign=middle;resizable=0;points=[];fontSize=16;" parent="qKAgkgesWeWLvzqZyhlg-117" vertex="1" connectable="0">
                    <mxGeometry x="0.037" relative="1" as="geometry">
                        <mxPoint x="6" as="offset"/>
                    </mxGeometry>
                </mxCell>
                <mxCell id="qKAgkgesWeWLvzqZyhlg-4" value="200 &lt;br&gt;Response?" style="rhombus;whiteSpace=wrap;html=1;strokeColor=#82b366;strokeWidth=2;fontSize=16;rounded=0;fillColor=#d5e8d4;" parent="1" vertex="1">
                    <mxGeometry x="261" y="230" width="124" height="110" as="geometry"/>
                </mxCell>
                <mxCell id="qKAgkgesWeWLvzqZyhlg-37" value="" style="edgeStyle=orthogonalEdgeStyle;orthogonalLoop=1;jettySize=auto;html=1;fontSize=16;" parent="1" source="qKAgkgesWeWLvzqZyhlg-13" target="qKAgkgesWeWLvzqZyhlg-36" edge="1">
                    <mxGeometry relative="1" as="geometry"/>
                </mxCell>
                <mxCell id="qKAgkgesWeWLvzqZyhlg-38" value="No" style="edgeLabel;html=1;align=center;verticalAlign=middle;resizable=0;points=[];fontSize=16;" parent="qKAgkgesWeWLvzqZyhlg-37" vertex="1" connectable="0">
                    <mxGeometry x="-0.1746" relative="1" as="geometry">
                        <mxPoint x="3" as="offset"/>
                    </mxGeometry>
                </mxCell>
                <mxCell id="qKAgkgesWeWLvzqZyhlg-86" style="edgeStyle=orthogonalEdgeStyle;orthogonalLoop=1;jettySize=auto;html=1;exitX=0.5;exitY=1;exitDx=0;exitDy=0;entryX=0.419;entryY=0;entryDx=0;entryDy=0;entryPerimeter=0;fontSize=16;" parent="1" source="qKAgkgesWeWLvzqZyhlg-13" target="qKAgkgesWeWLvzqZyhlg-85" edge="1">
                    <mxGeometry relative="1" as="geometry"/>
                </mxCell>
                <mxCell id="qKAgkgesWeWLvzqZyhlg-126" value="Yes" style="edgeLabel;html=1;align=center;verticalAlign=middle;resizable=0;points=[];fontSize=16;" parent="qKAgkgesWeWLvzqZyhlg-86" vertex="1" connectable="0">
                    <mxGeometry x="-0.2744" relative="1" as="geometry">
                        <mxPoint x="-29" y="3" as="offset"/>
                    </mxGeometry>
                </mxCell>
                <mxCell id="qKAgkgesWeWLvzqZyhlg-13" value="Is ref ID in table?&amp;nbsp;" style="rhombus;whiteSpace=wrap;html=1;strokeColor=#82b366;strokeWidth=2;fontSize=16;rounded=0;fillColor=#d5e8d4;" parent="1" vertex="1">
                    <mxGeometry x="470" y="515" width="124" height="110" as="geometry"/>
                </mxCell>
                <mxCell id="qKAgkgesWeWLvzqZyhlg-31" value="" style="edgeStyle=orthogonalEdgeStyle;rounded=0;orthogonalLoop=1;jettySize=auto;html=1;fontSize=16;" parent="1" source="qKAgkgesWeWLvzqZyhlg-22" target="qKAgkgesWeWLvzqZyhlg-13" edge="1">
                    <mxGeometry relative="1" as="geometry"/>
                </mxCell>
                <mxCell id="qKAgkgesWeWLvzqZyhlg-22" value="Query article ref ID against API articles" style="rounded=0;whiteSpace=wrap;html=1;strokeColor=#82b366;strokeWidth=2;fontSize=16;fillColor=#d5e8d4;" parent="1" vertex="1">
                    <mxGeometry x="243" y="530" width="160" height="80" as="geometry"/>
                </mxCell>
                <mxCell id="qKAgkgesWeWLvzqZyhlg-30" value="" style="edgeStyle=orthogonalEdgeStyle;rounded=0;orthogonalLoop=1;jettySize=auto;html=1;fontSize=16;" parent="1" source="qKAgkgesWeWLvzqZyhlg-23" target="qKAgkgesWeWLvzqZyhlg-22" edge="1">
                    <mxGeometry relative="1" as="geometry"/>
                </mxCell>
                <mxCell id="qKAgkgesWeWLvzqZyhlg-23" value="Query articles table to collect all articles" style="rounded=0;whiteSpace=wrap;html=1;strokeColor=#b85450;strokeWidth=2;fontSize=16;fillColor=#f8cecc;" parent="1" vertex="1">
                    <mxGeometry x="243" y="390" width="160" height="80" as="geometry"/>
                </mxCell>
                <mxCell id="qKAgkgesWeWLvzqZyhlg-40" value="" style="edgeStyle=orthogonalEdgeStyle;orthogonalLoop=1;jettySize=auto;html=1;fontSize=16;" parent="1" source="qKAgkgesWeWLvzqZyhlg-36" target="qKAgkgesWeWLvzqZyhlg-39" edge="1">
                    <mxGeometry relative="1" as="geometry"/>
                </mxCell>
                <mxCell id="qKAgkgesWeWLvzqZyhlg-36" value="Query tags table to collect all tag names" style="rounded=0;whiteSpace=wrap;html=1;strokeColor=#6c8ebf;strokeWidth=2;fontSize=16;fillColor=#dae8fc;" parent="1" vertex="1">
                    <mxGeometry x="657" y="530" width="160" height="80" as="geometry"/>
                </mxCell>
                <mxCell id="qKAgkgesWeWLvzqZyhlg-77" value="" style="edgeStyle=orthogonalEdgeStyle;orthogonalLoop=1;jettySize=auto;html=1;fontSize=16;" parent="1" source="qKAgkgesWeWLvzqZyhlg-39" target="qKAgkgesWeWLvzqZyhlg-41" edge="1">
                    <mxGeometry relative="1" as="geometry"/>
                </mxCell>
                <mxCell id="qKAgkgesWeWLvzqZyhlg-39" value="Check a tag in the article against the list of existing tags" style="rounded=0;whiteSpace=wrap;html=1;strokeColor=#9673a6;strokeWidth=2;fontSize=16;fillColor=#e1d5e7;" parent="1" vertex="1">
                    <mxGeometry x="880" y="530" width="160" height="80" as="geometry"/>
                </mxCell>
                <mxCell id="qKAgkgesWeWLvzqZyhlg-82" value="" style="edgeStyle=orthogonalEdgeStyle;orthogonalLoop=1;jettySize=auto;html=1;fontSize=16;" parent="1" source="qKAgkgesWeWLvzqZyhlg-41" target="qKAgkgesWeWLvzqZyhlg-48" edge="1">
                    <mxGeometry relative="1" as="geometry"/>
                </mxCell>
                <mxCell id="qKAgkgesWeWLvzqZyhlg-83" value="Yes" style="edgeLabel;html=1;align=center;verticalAlign=middle;resizable=0;points=[];fontSize=16;" parent="qKAgkgesWeWLvzqZyhlg-82" vertex="1" connectable="0">
                    <mxGeometry x="-0.3214" relative="1" as="geometry">
                        <mxPoint x="4" as="offset"/>
                    </mxGeometry>
                </mxCell>
                <mxCell id="4" value="" style="edgeStyle=none;html=1;fontSize=16;" edge="1" parent="1" source="qKAgkgesWeWLvzqZyhlg-41" target="qKAgkgesWeWLvzqZyhlg-43">
                    <mxGeometry relative="1" as="geometry"/>
                </mxCell>
                <mxCell id="5" value="No" style="edgeLabel;html=1;align=center;verticalAlign=middle;resizable=0;points=[];fontSize=16;" vertex="1" connectable="0" parent="4">
                    <mxGeometry x="-0.2392" y="-2" relative="1" as="geometry">
                        <mxPoint y="-1" as="offset"/>
                    </mxGeometry>
                </mxCell>
                <mxCell id="qKAgkgesWeWLvzqZyhlg-41" value="Is article &lt;br&gt;tag in tags &lt;br&gt;table?" style="rhombus;whiteSpace=wrap;html=1;strokeColor=#9673a6;strokeWidth=2;fontSize=16;rounded=0;fillColor=#e1d5e7;" parent="1" vertex="1">
                    <mxGeometry x="1090" y="515" width="124" height="110" as="geometry"/>
                </mxCell>
                <mxCell id="qKAgkgesWeWLvzqZyhlg-76" value="" style="edgeStyle=orthogonalEdgeStyle;orthogonalLoop=1;jettySize=auto;html=1;fontSize=16;" parent="1" source="qKAgkgesWeWLvzqZyhlg-43" target="qKAgkgesWeWLvzqZyhlg-48" edge="1">
                    <mxGeometry relative="1" as="geometry"/>
                </mxCell>
                <mxCell id="qKAgkgesWeWLvzqZyhlg-43" value="Add tag to table" style="rounded=0;whiteSpace=wrap;html=1;strokeColor=#9673a6;strokeWidth=2;fontSize=16;fillColor=#e1d5e7;" parent="1" vertex="1">
                    <mxGeometry x="1071" y="390" width="162" height="80" as="geometry"/>
                </mxCell>
                <mxCell id="qKAgkgesWeWLvzqZyhlg-78" style="edgeStyle=orthogonalEdgeStyle;orthogonalLoop=1;jettySize=auto;html=1;exitX=0.5;exitY=1;exitDx=0;exitDy=0;entryX=0.5;entryY=1;entryDx=0;entryDy=0;fontSize=16;" parent="1" source="qKAgkgesWeWLvzqZyhlg-48" target="qKAgkgesWeWLvzqZyhlg-39" edge="1">
                    <mxGeometry relative="1" as="geometry"/>
                </mxCell>
                <mxCell id="qKAgkgesWeWLvzqZyhlg-84" value="No" style="edgeLabel;html=1;align=center;verticalAlign=middle;resizable=0;points=[];fontSize=16;" parent="qKAgkgesWeWLvzqZyhlg-78" vertex="1" connectable="0">
                    <mxGeometry x="-0.1663" y="-2" relative="1" as="geometry">
                        <mxPoint x="-22" as="offset"/>
                    </mxGeometry>
                </mxCell>
                <mxCell id="qKAgkgesWeWLvzqZyhlg-127" style="edgeStyle=orthogonalEdgeStyle;orthogonalLoop=1;jettySize=auto;html=1;exitX=1;exitY=0.5;exitDx=0;exitDy=0;entryX=1;entryY=0.5;entryDx=0;entryDy=0;fontSize=16;" parent="1" source="qKAgkgesWeWLvzqZyhlg-48" target="qKAgkgesWeWLvzqZyhlg-65" edge="1">
                    <mxGeometry relative="1" as="geometry"/>
                </mxCell>
                <mxCell id="qKAgkgesWeWLvzqZyhlg-128" value="Yes" style="edgeLabel;html=1;align=center;verticalAlign=middle;resizable=0;points=[];fontSize=16;" parent="qKAgkgesWeWLvzqZyhlg-127" vertex="1" connectable="0">
                    <mxGeometry x="-0.3903" y="-2" relative="1" as="geometry">
                        <mxPoint y="-7" as="offset"/>
                    </mxGeometry>
                </mxCell>
                <mxCell id="qKAgkgesWeWLvzqZyhlg-129" value="Yes" style="edgeLabel;html=1;align=center;verticalAlign=middle;resizable=0;points=[];fontSize=16;" parent="qKAgkgesWeWLvzqZyhlg-127" vertex="1" connectable="0">
                    <mxGeometry x="0.4359" y="3" relative="1" as="geometry">
                        <mxPoint as="offset"/>
                    </mxGeometry>
                </mxCell>
                <mxCell id="qKAgkgesWeWLvzqZyhlg-48" value="Is last tag&lt;br&gt;to check?" style="rhombus;whiteSpace=wrap;html=1;strokeColor=#9673a6;strokeWidth=2;fontSize=16;rounded=0;fillColor=#e1d5e7;" parent="1" vertex="1">
                    <mxGeometry x="1270" y="515" width="124" height="110" as="geometry"/>
                </mxCell>
                <mxCell id="qKAgkgesWeWLvzqZyhlg-131" value="" style="edgeStyle=orthogonalEdgeStyle;orthogonalLoop=1;jettySize=auto;html=1;fontSize=16;" parent="1" source="qKAgkgesWeWLvzqZyhlg-57" target="qKAgkgesWeWLvzqZyhlg-67" edge="1">
                    <mxGeometry relative="1" as="geometry"/>
                </mxCell>
                <mxCell id="qKAgkgesWeWLvzqZyhlg-57" value="Add article details to the articles table" style="rounded=0;whiteSpace=wrap;html=1;strokeColor=#9673a6;strokeWidth=2;fontSize=16;fillColor=#e1d5e7;" parent="1" vertex="1">
                    <mxGeometry x="1071" y="810" width="160" height="80" as="geometry"/>
                </mxCell>
                <mxCell id="qKAgkgesWeWLvzqZyhlg-130" value="" style="edgeStyle=orthogonalEdgeStyle;orthogonalLoop=1;jettySize=auto;html=1;fontSize=16;" parent="1" source="qKAgkgesWeWLvzqZyhlg-65" target="qKAgkgesWeWLvzqZyhlg-57" edge="1">
                    <mxGeometry relative="1" as="geometry"/>
                </mxCell>
                <mxCell id="qKAgkgesWeWLvzqZyhlg-65" value="Query tags table to collect all tag names" style="rounded=0;whiteSpace=wrap;html=1;strokeColor=#6c8ebf;strokeWidth=2;fontSize=16;fillColor=#dae8fc;" parent="1" vertex="1">
                    <mxGeometry x="1071" y="680" width="160" height="80" as="geometry"/>
                </mxCell>
                <mxCell id="qKAgkgesWeWLvzqZyhlg-105" style="edgeStyle=orthogonalEdgeStyle;orthogonalLoop=1;jettySize=auto;html=1;fontSize=16;" parent="1" source="qKAgkgesWeWLvzqZyhlg-67" target="qKAgkgesWeWLvzqZyhlg-69" edge="1">
                    <mxGeometry relative="1" as="geometry"/>
                </mxCell>
                <mxCell id="qKAgkgesWeWLvzqZyhlg-67" value="Add article_id and each tag to article_tags table" style="rounded=0;whiteSpace=wrap;html=1;strokeColor=#82b366;strokeWidth=2;fontSize=16;fillColor=#d5e8d4;" parent="1" vertex="1">
                    <mxGeometry x="860" y="810" width="160" height="80" as="geometry"/>
                </mxCell>
                <mxCell id="qKAgkgesWeWLvzqZyhlg-106" style="edgeStyle=orthogonalEdgeStyle;orthogonalLoop=1;jettySize=auto;html=1;exitX=0.5;exitY=1;exitDx=0;exitDy=0;entryX=0;entryY=0.5;entryDx=0;entryDy=0;fontSize=16;" parent="1" source="qKAgkgesWeWLvzqZyhlg-69" target="qKAgkgesWeWLvzqZyhlg-22" edge="1">
                    <mxGeometry relative="1" as="geometry">
                        <Array as="points">
                            <mxPoint x="742" y="1070"/>
                            <mxPoint x="180" y="1070"/>
                            <mxPoint x="180" y="570"/>
                        </Array>
                    </mxGeometry>
                </mxCell>
                <mxCell id="qKAgkgesWeWLvzqZyhlg-107" value="No" style="edgeLabel;html=1;align=center;verticalAlign=middle;resizable=0;points=[];fontSize=16;" parent="qKAgkgesWeWLvzqZyhlg-106" vertex="1" connectable="0">
                    <mxGeometry x="-0.9101" y="1" relative="1" as="geometry">
                        <mxPoint y="9" as="offset"/>
                    </mxGeometry>
                </mxCell>
                <mxCell id="qKAgkgesWeWLvzqZyhlg-108" value="No" style="edgeLabel;html=1;align=center;verticalAlign=middle;resizable=0;points=[];fontSize=16;" parent="qKAgkgesWeWLvzqZyhlg-106" vertex="1" connectable="0">
                    <mxGeometry x="-0.3132" y="-2" relative="1" as="geometry">
                        <mxPoint as="offset"/>
                    </mxGeometry>
                </mxCell>
                <mxCell id="qKAgkgesWeWLvzqZyhlg-109" value="No" style="edgeLabel;html=1;align=center;verticalAlign=middle;resizable=0;points=[];fontSize=16;" parent="qKAgkgesWeWLvzqZyhlg-106" vertex="1" connectable="0">
                    <mxGeometry x="0.507" y="3" relative="1" as="geometry">
                        <mxPoint as="offset"/>
                    </mxGeometry>
                </mxCell>
                <mxCell id="qKAgkgesWeWLvzqZyhlg-123" style="edgeStyle=orthogonalEdgeStyle;orthogonalLoop=1;jettySize=auto;html=1;exitX=0.5;exitY=0;exitDx=0;exitDy=0;entryX=0;entryY=0.5;entryDx=0;entryDy=0;fontSize=16;" parent="1" source="qKAgkgesWeWLvzqZyhlg-69" target="qKAgkgesWeWLvzqZyhlg-119" edge="1">
                    <mxGeometry relative="1" as="geometry"/>
                </mxCell>
                <mxCell id="qKAgkgesWeWLvzqZyhlg-124" value="Yes" style="edgeLabel;html=1;align=center;verticalAlign=middle;resizable=0;points=[];fontSize=16;" parent="qKAgkgesWeWLvzqZyhlg-123" vertex="1" connectable="0">
                    <mxGeometry x="-0.7467" relative="1" as="geometry">
                        <mxPoint y="-10" as="offset"/>
                    </mxGeometry>
                </mxCell>
                <mxCell id="qKAgkgesWeWLvzqZyhlg-125" value="Yes" style="edgeLabel;html=1;align=center;verticalAlign=middle;resizable=0;points=[];fontSize=16;" parent="qKAgkgesWeWLvzqZyhlg-123" vertex="1" connectable="0">
                    <mxGeometry x="0.3404" relative="1" as="geometry">
                        <mxPoint x="4" as="offset"/>
                    </mxGeometry>
                </mxCell>
                <mxCell id="qKAgkgesWeWLvzqZyhlg-69" value="Is last article&lt;br&gt;to check?" style="rhombus;whiteSpace=wrap;html=1;strokeColor=#82b366;strokeWidth=2;fontSize=16;rounded=0;fillColor=#d5e8d4;" parent="1" vertex="1">
                    <mxGeometry x="680" y="795" width="124" height="110" as="geometry"/>
                </mxCell>
                <mxCell id="qKAgkgesWeWLvzqZyhlg-97" value="" style="edgeStyle=orthogonalEdgeStyle;orthogonalLoop=1;jettySize=auto;html=1;fontSize=16;" parent="1" source="qKAgkgesWeWLvzqZyhlg-85" target="qKAgkgesWeWLvzqZyhlg-89" edge="1">
                    <mxGeometry relative="1" as="geometry"/>
                </mxCell>
                <mxCell id="qKAgkgesWeWLvzqZyhlg-85" value="Get last record from article_likes table for the article" style="rounded=0;whiteSpace=wrap;html=1;strokeColor=#d79b00;strokeWidth=2;fontSize=16;fillColor=#ffe6cc;" parent="1" vertex="1">
                    <mxGeometry x="243" y="680" width="160" height="80" as="geometry"/>
                </mxCell>
                <mxCell id="qKAgkgesWeWLvzqZyhlg-98" value="" style="edgeStyle=orthogonalEdgeStyle;orthogonalLoop=1;jettySize=auto;html=1;fontSize=16;" parent="1" source="qKAgkgesWeWLvzqZyhlg-89" target="qKAgkgesWeWLvzqZyhlg-91" edge="1">
                    <mxGeometry relative="1" as="geometry"/>
                </mxCell>
                <mxCell id="qKAgkgesWeWLvzqZyhlg-89" value="Work out difference between last record reactions and API reactions count" style="rounded=0;whiteSpace=wrap;html=1;strokeColor=#d79b00;strokeWidth=2;fontSize=16;fillColor=#ffe6cc;" parent="1" vertex="1">
                    <mxGeometry x="470" y="680" width="160" height="80" as="geometry"/>
                </mxCell>
                <mxCell id="qKAgkgesWeWLvzqZyhlg-99" value="" style="edgeStyle=orthogonalEdgeStyle;orthogonalLoop=1;jettySize=auto;html=1;fontSize=16;" parent="1" source="qKAgkgesWeWLvzqZyhlg-91" target="qKAgkgesWeWLvzqZyhlg-93" edge="1">
                    <mxGeometry relative="1" as="geometry"/>
                </mxCell>
                <mxCell id="qKAgkgesWeWLvzqZyhlg-91" value="Add record to article_likes with article_id, count and change" style="rounded=0;whiteSpace=wrap;html=1;strokeColor=#d79b00;strokeWidth=2;fontSize=16;fillColor=#ffe6cc;" parent="1" vertex="1">
                    <mxGeometry x="470" y="810" width="160" height="80" as="geometry"/>
                </mxCell>
                <mxCell id="qKAgkgesWeWLvzqZyhlg-102" value="" style="edgeStyle=orthogonalEdgeStyle;orthogonalLoop=1;jettySize=auto;html=1;fontSize=16;" parent="1" source="qKAgkgesWeWLvzqZyhlg-93" target="qKAgkgesWeWLvzqZyhlg-100" edge="1">
                    <mxGeometry relative="1" as="geometry"/>
                </mxCell>
                <mxCell id="qKAgkgesWeWLvzqZyhlg-93" value="Get last record from article_comments table for the article" style="rounded=0;whiteSpace=wrap;html=1;strokeColor=#d79b00;strokeWidth=2;fontSize=16;fillColor=#ffe6cc;" parent="1" vertex="1">
                    <mxGeometry x="243" y="810" width="160" height="80" as="geometry"/>
                </mxCell>
                <mxCell id="qKAgkgesWeWLvzqZyhlg-103" value="" style="edgeStyle=orthogonalEdgeStyle;orthogonalLoop=1;jettySize=auto;html=1;fontSize=16;" parent="1" source="qKAgkgesWeWLvzqZyhlg-100" target="qKAgkgesWeWLvzqZyhlg-101" edge="1">
                    <mxGeometry relative="1" as="geometry"/>
                </mxCell>
                <mxCell id="qKAgkgesWeWLvzqZyhlg-100" value="Work out difference between last record comments and API comments count" style="rounded=0;whiteSpace=wrap;html=1;strokeColor=#d79b00;strokeWidth=2;fontSize=16;fillColor=#ffe6cc;" parent="1" vertex="1">
                    <mxGeometry x="243" y="940" width="160" height="80" as="geometry"/>
                </mxCell>
                <mxCell id="qKAgkgesWeWLvzqZyhlg-104" style="edgeStyle=orthogonalEdgeStyle;orthogonalLoop=1;jettySize=auto;html=1;fontSize=16;exitX=1;exitY=0.5;exitDx=0;exitDy=0;entryX=0;entryY=0.5;entryDx=0;entryDy=0;" parent="1" source="qKAgkgesWeWLvzqZyhlg-101" edge="1" target="qKAgkgesWeWLvzqZyhlg-69">
                    <mxGeometry relative="1" as="geometry">
                        <mxPoint x="740" y="790" as="targetPoint"/>
                        <Array as="points">
                            <mxPoint x="650" y="980"/>
                            <mxPoint x="650" y="850"/>
                        </Array>
                    </mxGeometry>
                </mxCell>
                <mxCell id="qKAgkgesWeWLvzqZyhlg-101" value="Add record to article_comments&lt;br&gt;&amp;nbsp;with article_id, count and change" style="rounded=0;whiteSpace=wrap;html=1;strokeColor=#d79b00;strokeWidth=2;fontSize=16;fillColor=#ffe6cc;" parent="1" vertex="1">
                    <mxGeometry x="470" y="940" width="160" height="80" as="geometry"/>
                </mxCell>
                <mxCell id="qKAgkgesWeWLvzqZyhlg-114" value="" style="edgeStyle=orthogonalEdgeStyle;orthogonalLoop=1;jettySize=auto;html=1;fontSize=16;" parent="1" source="qKAgkgesWeWLvzqZyhlg-111" target="qKAgkgesWeWLvzqZyhlg-4" edge="1">
                    <mxGeometry relative="1" as="geometry"/>
                </mxCell>
                <mxCell id="qKAgkgesWeWLvzqZyhlg-111" value="Make &lt;br&gt;API call to collect published articles" style="ellipse;whiteSpace=wrap;html=1;fontSize=16;fillColor=#d5e8d4;strokeColor=#82b366;" parent="1" vertex="1">
                    <mxGeometry x="239.5" y="100" width="167" height="80" as="geometry"/>
                </mxCell>
                <mxCell id="qKAgkgesWeWLvzqZyhlg-115" value="Error message and stop" style="ellipse;whiteSpace=wrap;html=1;fontSize=16;fillColor=#d5e8d4;strokeColor=#82b366;" parent="1" vertex="1">
                    <mxGeometry x="40" y="245" width="167" height="80" as="geometry"/>
                </mxCell>
                <mxCell id="qKAgkgesWeWLvzqZyhlg-119" value="End of process" style="ellipse;whiteSpace=wrap;html=1;fontSize=16;fillColor=#d5e8d4;strokeColor=#82b366;" parent="1" vertex="1">
                    <mxGeometry x="860" y="680" width="167" height="80" as="geometry"/>
                </mxCell>
                <mxCell id="3" value="&lt;h1&gt;&lt;font style=&quot;font-size: 31px;&quot;&gt;Data Flow Diagram - Gathering and Adding Data To Database&lt;/font&gt;&lt;/h1&gt;&lt;p&gt;&lt;font style=&quot;font-size: 16px;&quot;&gt;This diagram depicts the flow of processing the data that is gathered from the dev.to API for articles and inserting it into the database.&lt;/font&gt;&lt;/p&gt;&lt;p&gt;&lt;font style=&quot;font-size: 16px;&quot;&gt;Each colour represents either a function or a class in the application.&lt;/font&gt;&lt;/p&gt;" style="text;html=1;strokeColor=none;fillColor=none;spacing=5;spacingTop=-20;whiteSpace=wrap;overflow=hidden;rounded=0;align=right;" vertex="1" parent="1">
                    <mxGeometry x="890" y="40" width="730" height="210" as="geometry"/>
                </mxCell>
            </root>
        </mxGraphModel>
    </diagram>
</mxfile>